Simulation
nRows=27
nColumns=15
endheader
time  TH_x TH_y TH_z SC_y  SC_z  SC_x  AC_y  AC_z  AC_x  GH_y  GH_z  GH_yy  EL_x  PS_y
0.0  0.000000  0.000000  0.000000  -22.190331536805424  7.7770900350727485  16.995708349509616  57.1034522843824  10.298799314413817  3.6391852309898978  40.57237810320485  59.22965505442606  -42.837000957014055  21.297626872387898  120.000000
0.04052287581699346  0.000000  0.000000  0.000000  -22.230579941404187  7.9018214435312375  17.435438401489595  57.2812811297234  10.456504921607156  4.135830183810341  40.26671637111676  59.86190950983137  -44.03508470824947  23.3966215338289  120.000000
0.08104575163398692  0.000000  0.000000  0.000000  -22.30375651989132  7.90979614703127  17.451504412098565  57.495212182329844  10.450910262135718  4.306615566643814  39.97335382157466  60.061774957482804  -45.16809931135708  25.273265797932535  120.000000
0.12156862745098038  0.000000  0.000000  0.000000  -22.32456742619814  7.781622944893883  17.194792525378418  57.69712196885253  10.439640592538776  4.272333078249602  39.70555878311935  59.93130284811733  -46.19140845137903  26.849012397167755  120.000000
0.16209150326797384  0.000000  0.000000  0.000000  -22.316532816155895  7.553593732484304  16.77642843156932  57.88351981934654  10.487197717849261  4.140840737133225  39.510560086925075  59.58572006143481  -47.0818935547179  28.114745365341346  120.000000
0.2026143790849673  0.000000  0.000000  0.000000  -22.282236199297326  7.26912936459253  16.287039583885775  58.04198643749599  10.616870113902486  3.9853926440573515  39.400043406247356  59.13780340092335  -47.82985413936856  29.08230221240652  120.000000
0.24313725490196075  0.000000  0.000000  0.000000  -22.2422806882151  6.985246486960101  15.790331757306936  58.16468949885575  10.812955651527353  3.856694436991386  39.37291092465764  58.67987763612112  -48.43276862435388  29.778624971260477  120.000000
0.28366013071895424  0.000000  0.000000  0.000000  -22.209704099824233  6.740211070729842  15.32269282241711  58.24767371934303  11.04880751780403  3.7773206444345555  39.41115465493187  58.27695391161289  -48.889680768675085  30.2343392336433  120.000000
0.32418300653594767  0.000000  0.000000  0.000000  -22.184044194066804  6.556061207288421  14.902500459277029  58.28775454995249  11.298262862805442  3.7538058521935382  39.48980204908561  57.96362933242108  -49.19884431263814  30.473398443376308  120.000000
0.3647058823529411  0.000000  0.000000  0.000000  -22.160591234296774  6.440366248613177  14.536968461336047  58.28605105682822  11.540926575403134  3.7838515605272747  39.585900852052106  57.75285369093108  -49.35668961615916  30.51547043930008  120.000000
0.4052287581699346  0.000000  0.000000  0.000000  -22.132394653883413  6.389541443179943  14.22862763196048  58.24658397947623  11.764987701109035  3.8595203824699835  39.68012937000824  57.64341153630507  -49.35903278529123  30.379005676490205  120.000000
0.4457516339869281  0.000000  0.000000  0.000000  -22.095134339744146  6.395402294296515  13.97994413129149  58.1753640129921  11.964367772161758  3.971971319989351  39.75848225979202  57.62687179413618  -49.20121580065569  30.080803387225586  120.000000
0.4862745098039215  0.000000  0.000000  0.000000  -22.04834168943812  6.447699628219861  13.794048070293268  58.07993674788974  12.137772914943156  4.112677818646295  39.81084950391677  57.69296498939435  -48.87967103119992  29.638180324189737  120.000000
0.5267973856209149  0.000000  0.000000  0.000000  -21.99525370372803  6.536895626448847  13.674791551101789  57.96817442077273  12.286771498235563  4.27555415819788  39.8299353218109  57.832158235057854  -48.39137872844803  29.068734919556373  120.000000
0.5673202614379085  0.000000  0.000000  0.000000  -21.941618187300065  6.655219451962719  13.626515182242539  57.84816668558925  12.413783535705377  4.456766413226452  39.810391956774254  58.03744823564097  -47.73474392302831  28.390318802444195  120.000000
0.6078431372549019  0.000000  0.000000  0.000000  -21.894320463593463  6.79694109148903  13.653551232557476  57.7278049450068  12.520583484958111  4.654928700359564  39.74859382648033  58.3043549885446  -46.90953898903077  27.621033187680855  120.000000
0.6483660130718953  0.000000  0.000000  0.000000  -21.85999932848936  6.958746782717823  13.759236126400959  57.6147499926465  12.607281692658946  4.870758016585608  39.643087166053164  58.630974668497636  -45.9176428516486  26.778634357352487  120.000000
0.6888888888888888  0.000000  0.000000  0.000000  -21.844035975747037  7.1397623692068315  13.945217384222076  57.51621512466412  12.67194007517068  5.107266917943242  39.49508793089412  59.01706520727026  -44.763258357267276  25.880197647275885  120.000000
0.7294117647058822  0.000000  0.000000  0.000000  -21.85018613121309  7.341344649730564  14.210746630493587  57.4392360496388  12.710763456243992  5.369387279447932  39.309074354231235  59.46372948039063  -43.45358367865232  24.941819139072166  120.000000
0.7699346405228757  0.000000  0.000000  0.000000  -21.880681681321665  7.566687577101117  14.552525638370089  57.3904540289476  12.718832141061785  5.66395049128125  39.09296926084486  59.9722944869908  -41.998424561846164  23.978856937728924  120.000000
0.8104575163398692  0.000000  0.000000  0.000000  -21.936350527457297  7.820368666046529  14.964870643022735  57.37610065851243  12.690965123619511  5.998944531583726  38.857883349634164  60.54362382373392  -40.41019157020962  23.0062638994809  120.000000
0.8509803921568626  0.000000  0.000000  0.000000  -22.01716752517303  8.107519479823006  15.44036723330354  57.401966250152725  12.622840232209892  6.3830207414347  38.61757919395391  61.17694034241793  -38.704124163272034  22.03875981564194  120.000000
0.8915032679738562  0.000000  0.000000  0.000000  -22.122602835988857  8.433015316512277  15.970176605223179  57.473212893902904  12.51196470885748  6.824591178211778  38.387641112690204  61.869295065649936  -36.89870377820669  21.09078534015902  120.000000
0.9320261437908496  0.000000  0.000000  0.000000  -22.252174613676804  8.80067860238573  16.5445818175488  57.59377046400914  12.358604495319009  7.331037713194446  38.18443948487573  62.61444589137461  -35.01600111610654  20.176448359656447  120.000000
0.972549019607843  0.000000  0.000000  0.000000  -22.40607183127727  9.212030858355176  17.153418855487487  57.765978749973435  12.166403785448034  7.907278158288092  38.02429359264751  63.402532572205565  -33.08299177398861  19.309239786150908  120.000000
1.0130718954248366  0.000000  0.000000  0.000000  -22.58535951078618  9.665398523673126  17.786788917597995  57.98984647783407  11.942829495894888  8.554566025798609  37.922374549582536  64.21951635418426  -31.132100423616393  18.501566490893172  120.000000
1.0535947712418299  0.000000  0.000000  0.000000  -22.79206674486573  10.155083705778688  18.435710596269764  58.262803407009024  11.699049433856178  9.269305913138066  37.89157477547685  65.04752687716623  -29.201049364628332  17.76464982591885  120.000000
